# xmcd CD database file
#
# Track frame offsets:
#	150
#	8919
#	29223
#	39765
#	55017
#	67731
#	79062
#	87321
#	103170
#	114300
#	126756
#	136569
#	148023
#	176271
#	195072
#	207972
#
# Disc length: 2899 seconds
#
# Revision: 0
# Processed by: cddbd v1.5.2PL0 Copyright (c) Steve Scherf et al.
# Submitted via: CDex 1.51
#
DISCID=c60b5110
DTITLE=Johnny Cash - Black Album
DYEAR=2009
DGENRE=Country
TTITLE0=Big River
TTITLE1=Banks Of The Ohio
TTITLE2=Daddy Sang Bass
TTITLE3=Darlin Companion
TTITLE4=Folsom Prison Blues
TTITLE5=Get Rhythm
TTITLE6=Guess Things Happen That Way
TTITLE7=I WalkThe Line
TTITLE8=Mean Eyed Cat
TTITLE9=Peace In The Valley
TTITLE10=Rock Island Line
TTITLE11=San Quentin
TTITLE12=Starkville City Jail
TTITLE13=Sunday Morning Coming Down
TTITLE14=Wanted Man
TTITLE15=Wreck Of The Old 97
EXTD=YEAR: 2009
EXTT0=
EXTT1=
EXTT2=
EXTT3=
EXTT4=
EXTT5=
EXTT6=
EXTT7=
EXTT8=
EXTT9=
EXTT10=
EXTT11=
EXTT12=
EXTT13=
EXTT14=
EXTT15=
PLAYORDER=
